<svg width="85" height="24" viewBox="0 0 85 24" fill="none" xmlns="http://www.w3.org/2000/svg">
<path d="M12.8158 23.292C11.4718 23.292 10.7998 22.68 10.7998 21.456C10.7998 20.304 11.3638 18.684 12.4918 16.596C12.6118 16.38 12.7558 16.128 12.9238 15.84C13.0918 15.552 13.3558 15.12 13.7158 14.544C14.0758 13.944 14.5918 13.092 15.2638 11.988C17.4718 8.34002 18.5758 5.50802 18.5758 3.49202C18.5758 1.81202 17.6998 0.972017 15.9478 0.972017C13.9558 0.972017 11.4358 2.13602 8.38782 4.46402C5.69982 6.50402 3.67182 8.53202 2.30382 10.548C1.39182 11.892 0.93582 13.008 0.93582 13.896C0.93582 14.664 1.36782 15.048 2.23182 15.048C2.47182 15.048 2.87982 14.952 3.45582 14.76C4.03182 14.568 4.39182 14.472 4.53582 14.472C4.79982 14.472 4.93182 14.544 4.93182 14.688C4.93182 15.024 4.51182 15.336 3.67182 15.624C2.97582 15.864 2.41182 15.984 1.97982 15.984C0.65982 15.984 -0.000179689 15.288 -0.000179689 13.896C-0.000179689 12.024 1.00782 9.96002 3.02382 7.70402C3.91182 6.72002 4.89582 5.78402 5.97582 4.89602C7.07982 3.98402 8.31582 3.12002 9.68382 2.30402C12.2998 0.768016 14.5198 1.62125e-05 16.3438 1.62125e-05C19.0798 1.62125e-05 20.4478 1.17602 20.4478 3.52802C20.4478 4.58402 20.1358 5.79602 19.5118 7.16402C19.1758 7.90802 18.7798 8.72402 18.3238 9.61202C17.8678 10.476 17.3278 11.424 16.7038 12.456C16.1998 13.32 15.6838 14.184 15.1558 15.048C14.6278 15.888 14.1118 16.74 13.6078 17.604C12.7198 19.092 12.2758 20.316 12.2758 21.276C12.2758 22.068 12.6118 22.464 13.2838 22.464C14.0998 22.464 15.2278 21.96 16.6678 20.952C20.3878 18.384 24.2398 14.664 28.2238 9.79202C28.2478 9.74402 28.3678 9.60002 28.5838 9.36002C28.7998 9.09602 29.0398 8.80802 29.3038 8.49602C29.6398 8.23202 29.9878 8.10002 30.3478 8.10002C30.6118 8.10002 30.7438 8.20802 30.7438 8.42402C30.7438 8.59202 30.6598 8.80802 30.4918 9.07202C28.1638 13.128 26.9998 16.476 26.9998 19.116C26.9998 20.892 27.4678 21.78 28.4038 21.78C29.1958 21.78 30.2638 21.072 31.6078 19.656C32.7358 18.456 33.5638 17.376 34.0918 16.416C35.6998 13.512 36.5038 11.292 36.5038 9.75602C36.5038 9.63602 36.4798 9.48002 36.4318 9.28802C36.3838 9.07202 36.3238 8.84402 36.2518 8.60402C36.1798 8.36402 36.1078 8.16002 36.0358 7.99202C35.9878 7.80002 35.9638 7.60802 35.9638 7.41602C35.9638 6.60002 36.2278 6.19202 36.7558 6.19202C37.0438 6.19202 37.2958 6.50402 37.5118 7.12802C37.6798 7.56002 37.7638 7.99202 37.7638 8.42402C37.7638 8.54402 37.7638 8.67602 37.7638 8.82002C37.7638 8.94002 37.7518 9.08402 37.7278 9.25202C37.8478 9.49202 38.0638 9.67202 38.3758 9.79202C38.6878 9.88802 38.8438 10.02 38.8438 10.188C38.8438 10.38 38.7118 10.476 38.4478 10.476C38.1598 10.476 37.8478 10.404 37.5118 10.26C37.2478 11.388 36.8998 12.492 36.4678 13.572C36.0598 14.652 35.5438 15.732 34.9198 16.812C34.2478 17.988 33.5158 19.008 32.7238 19.872C31.9318 20.736 31.1158 21.444 30.2758 21.996C29.6038 22.428 28.9078 22.644 28.1878 22.644C26.5078 22.644 25.6678 21.6 25.6678 19.512C25.6678 18.192 26.1958 15.816 27.2518 12.384C25.7158 13.92 24.3838 15.252 23.2558 16.38C22.1278 17.508 21.3718 18.24 20.9878 18.576C19.4518 19.968 18.0958 21.036 16.9198 21.78C15.7438 22.524 14.7718 22.98 14.0038 23.148C13.8118 23.172 13.6078 23.196 13.3918 23.22C13.1998 23.268 13.0078 23.292 12.8158 23.292ZM40.9962 13.176C40.4202 13.176 40.1322 12.888 40.1322 12.312C40.1322 12.024 40.2402 11.772 40.4562 11.556C40.6962 11.316 40.9722 11.196 41.2842 11.196C41.8602 11.196 42.1482 11.484 42.1482 12.06C42.1482 12.348 42.0402 12.6 41.8242 12.816C41.5842 13.056 41.3082 13.176 40.9962 13.176ZM38.9082 22.968C37.5882 22.968 36.9282 22.26 36.9282 20.844C36.9282 20.172 37.1682 19.188 37.6482 17.892C37.8642 17.292 38.0802 16.788 38.2962 16.38C38.5362 15.948 38.7762 15.552 39.0162 15.192C39.1602 14.976 39.3282 14.868 39.5202 14.868C39.7122 14.868 39.9042 14.964 40.0962 15.156C40.2162 15.276 40.2762 15.432 40.2762 15.624C40.2762 15.792 40.2282 15.96 40.1322 16.128C39.6042 16.944 39.1722 17.772 38.8362 18.612C38.5002 19.428 38.3322 20.16 38.3322 20.808C38.3322 21.672 38.6442 22.104 39.2682 22.104C39.6042 22.104 39.9882 22.02 40.4202 21.852C40.8522 21.66 41.2842 21.372 41.7162 20.988C42.0042 20.724 42.3042 20.424 42.6162 20.088C42.9522 19.752 43.2882 19.356 43.6242 18.9C44.2482 18.132 44.5602 17.748 44.5602 17.748C44.6802 17.748 44.7402 17.844 44.7402 18.036C44.7402 18.228 44.6562 18.42 44.4882 18.612C42.3042 21.516 40.4442 22.968 38.9082 22.968ZM46.4578 23.184C45.3298 23.184 44.3098 22.776 43.3978 21.96C42.4618 21.12 41.9938 20.16 41.9938 19.08C41.9938 18.384 42.1858 18.036 42.5698 18.036C42.8098 18.036 43.0618 18.204 43.3258 18.54C43.6618 18.252 44.2618 17.352 45.1258 15.84C45.5098 15.192 45.9298 14.532 46.3858 13.86C46.8418 13.164 47.3338 12.588 47.8618 12.132C48.3898 11.652 48.9418 11.412 49.5178 11.412C49.9738 11.412 50.3578 11.52 50.6698 11.736C51.0298 11.952 51.2098 12.216 51.2098 12.528C51.2098 12.72 50.9338 12.816 50.3818 12.816C49.8538 12.816 49.3498 12.984 48.8698 13.32C48.4138 13.68 48.1858 14.124 48.1858 14.652C48.1858 14.844 48.2218 15.048 48.2938 15.264L49.1938 17.604C49.3858 18.06 49.5058 18.504 49.5538 18.936C49.6258 19.344 49.6618 19.716 49.6618 20.052C51.0538 19.836 52.2418 19.128 53.2258 17.928C53.2738 17.856 53.3338 17.82 53.4058 17.82C53.5498 17.82 53.6218 17.916 53.6218 18.108C53.6218 18.156 53.6098 18.204 53.5858 18.252C53.5858 18.3 53.5738 18.348 53.5498 18.396C52.7578 19.644 51.4258 20.448 49.5538 20.808C49.4818 21.192 49.3498 21.528 49.1578 21.816C48.9658 22.104 48.7378 22.344 48.4738 22.536C47.8738 22.968 47.2018 23.184 46.4578 23.184ZM48.4018 20.232V19.872C48.4018 19.608 48.3418 19.248 48.2218 18.792C48.1258 18.336 47.9698 17.748 47.7538 17.028C47.5378 16.308 47.3698 15.66 47.2498 15.084C47.1538 14.484 47.1178 14.1 47.1418 13.932C46.5178 14.94 45.8938 15.9 45.2698 16.812C44.6698 17.7 44.1298 18.42 43.6498 18.972C44.3938 19.332 45.1858 19.62 46.0258 19.836C46.8658 20.052 47.6578 20.184 48.4018 20.232ZM45.9898 22.176C46.4698 22.176 46.9378 22.092 47.3938 21.924C47.8738 21.732 48.1978 21.396 48.3658 20.916C47.2858 20.916 46.2778 20.808 45.3418 20.592C44.4298 20.376 43.6978 20.04 43.1458 19.584L42.9298 19.8C43.5778 21.384 44.5978 22.176 45.9898 22.176ZM52.4245 22.356C51.6805 22.356 51.3085 21.948 51.3085 21.132C51.3085 19.644 52.0645 17.928 53.5765 15.984C54.3685 14.952 55.1485 14.184 55.9165 13.68C56.6845 13.152 57.4405 12.924 58.1845 12.996C58.5925 11.604 59.0125 10.308 59.4445 9.10802C59.8765 7.90802 60.3445 6.79202 60.8485 5.76002C62.4805 2.40002 64.0765 0.720018 65.6365 0.720018C66.6445 0.720018 67.1485 1.29602 67.1485 2.44802C67.1485 4.96802 64.2805 9.60002 58.5445 16.344C58.4005 17.16 58.3285 17.952 58.3285 18.72C58.3285 20.544 58.7125 21.456 59.4805 21.456C59.9845 21.456 60.7165 20.88 61.6765 19.728C62.6365 18.552 63.1645 17.964 63.2605 17.964C63.3325 17.964 63.3685 18.024 63.3685 18.144C63.3685 18.288 63.3085 18.456 63.1885 18.648C61.7005 21.072 60.2365 22.284 58.7965 22.284C57.5485 22.284 56.9245 21.336 56.9245 19.44C56.9245 18.84 56.9965 18.144 57.1405 17.352C55.2685 20.688 53.6965 22.356 52.4245 22.356ZM58.7605 15.3C63.4165 8.98802 65.7445 4.72802 65.7445 2.52002C65.7445 1.99202 65.5285 1.72802 65.0965 1.72802C63.8965 1.72802 62.5645 3.68402 61.1005 7.59602C60.1165 10.188 59.3365 12.756 58.7605 15.3ZM53.0365 21.24C53.5885 21.24 54.2725 20.7 55.0885 19.62C55.2565 19.428 55.4605 19.128 55.7005 18.72C55.9645 18.288 56.2765 17.76 56.6365 17.136C57.0445 16.44 57.3325 15.888 57.5005 15.48C57.6925 15.072 57.7885 14.808 57.7885 14.688C57.7885 14.64 57.7765 14.616 57.7525 14.616C57.7525 14.616 57.7405 14.604 57.7165 14.58C57.6925 14.508 57.5605 14.472 57.3205 14.472C56.3605 14.472 55.3165 15.216 54.1885 16.704C53.0605 18.192 52.4965 19.44 52.4965 20.448C52.4965 20.976 52.6765 21.24 53.0365 21.24ZM62.6876 22.788C61.8476 22.788 61.4276 22.296 61.4276 21.312C61.4276 19.944 62.0276 18.336 63.2276 16.488C63.2036 16.368 63.1796 16.236 63.1556 16.092C63.1556 15.948 63.1556 15.816 63.1556 15.696C63.1556 14.832 63.4436 13.992 64.0196 13.176C64.5956 12.36 65.3036 11.952 66.1436 11.952C66.8636 11.952 67.3436 12.204 67.5836 12.708C67.8476 13.212 67.9796 13.776 67.9796 14.4C67.9796 14.928 67.9196 15.432 67.7996 15.912C67.6796 16.416 67.4996 16.98 67.2596 17.604C67.0196 18.228 66.7196 18.888 66.3596 19.584C66.7196 19.8 67.1276 19.908 67.5836 19.908C67.9916 19.908 68.3756 19.86 68.7356 19.764C69.0956 19.644 69.4316 19.428 69.7436 19.116C70.0556 18.804 70.2956 18.528 70.4636 18.288C70.6556 18.048 70.7396 17.94 70.7156 17.964C70.7636 17.916 70.8116 17.892 70.8596 17.892C70.9556 17.892 71.0276 17.952 71.0756 18.072C71.1476 18.192 71.1356 18.312 71.0396 18.432C70.6556 18.984 70.1516 19.476 69.5276 19.908C68.9276 20.316 68.2676 20.52 67.5476 20.52C66.9956 20.52 66.5156 20.4 66.1076 20.16C65.0036 21.912 63.8636 22.788 62.6876 22.788ZM65.8916 19.26C66.2036 18.492 66.4436 17.832 66.6116 17.28C66.7796 16.728 66.8636 16.212 66.8636 15.732V15.444C66.8636 14.796 66.7556 14.196 66.5396 13.644C66.3236 13.068 66.0116 12.78 65.6036 12.78C65.0516 12.78 64.6196 13.116 64.3076 13.788C64.0916 14.244 63.9836 14.748 63.9836 15.3V15.516C64.3676 15.06 64.7516 14.832 65.1356 14.832C65.4956 14.832 65.7596 14.952 65.9276 15.192C65.9996 15.288 66.0356 15.372 66.0356 15.444C66.0356 15.588 65.8916 15.66 65.6036 15.66C65.1716 15.66 64.7156 16.116 64.2356 17.028C64.5716 17.964 65.1236 18.708 65.8916 19.26ZM63.2636 21.924C63.5756 21.924 64.0196 21.636 64.5956 21.06C64.8356 20.82 65.0396 20.592 65.2076 20.376C65.3756 20.16 65.5076 19.956 65.6036 19.764C64.7876 19.212 64.1876 18.6 63.8036 17.928C63.0836 19.44 62.7236 20.532 62.7236 21.204C62.7236 21.684 62.9036 21.924 63.2636 21.924ZM69.1502 22.5C68.9582 22.5 68.8622 22.284 68.8622 21.852C68.8622 21.708 68.8742 21.612 68.8982 21.564C69.1622 20.916 69.4382 20.136 69.7262 19.224C70.0142 18.312 70.3022 17.268 70.5902 16.092C70.6142 15.924 70.6382 15.756 70.6622 15.588C70.7102 15.42 70.7822 15.108 70.8782 14.652C70.9022 14.604 70.9502 14.532 71.0222 14.436C71.0942 14.34 71.2022 14.244 71.3462 14.148C71.6102 13.98 71.8502 13.896 72.0662 13.896C72.2342 13.896 72.3182 13.968 72.3182 14.112C72.3182 14.232 72.1742 14.748 71.8862 15.66C71.5982 16.572 71.1782 17.88 70.6262 19.584L74.5862 14.292C74.9222 13.86 75.2942 13.644 75.7022 13.644C76.0862 13.644 76.2782 13.86 76.2782 14.292C76.2782 14.46 76.2542 14.7 76.2062 15.012C76.1822 15.3 76.1222 15.672 76.0262 16.128C75.9302 16.584 75.8342 17.16 75.7382 17.856C75.6662 18.528 75.5702 19.308 75.4502 20.196C75.7862 19.716 76.2062 19.128 76.7102 18.432C77.2382 17.712 77.8622 16.896 78.5822 15.984C78.9422 15.528 79.3262 15.3 79.7342 15.3C80.0942 15.3 80.2742 15.528 80.2742 15.984C80.2742 16.176 80.2502 16.416 80.2022 16.704C80.1782 16.968 80.1422 17.292 80.0942 17.676C80.0462 18.06 79.9982 18.396 79.9502 18.684C79.9262 18.972 79.9142 19.212 79.9142 19.404C79.9142 20.652 80.2382 21.276 80.8862 21.276C81.8222 21.276 82.9862 20.268 84.3782 18.252C84.5462 18.012 84.6662 17.892 84.7382 17.892C84.8582 17.892 84.9182 18 84.9182 18.216C84.9182 18.264 84.8942 18.324 84.8462 18.396C84.8222 18.444 84.8222 18.456 84.8462 18.432C84.5582 18.816 84.2582 19.2 83.9462 19.584C83.6342 19.968 83.2622 20.364 82.8302 20.772C81.8462 21.732 80.9822 22.212 80.2382 22.212C79.1102 22.212 78.5462 20.964 78.5462 18.468C78.5462 18.276 78.5462 18.072 78.5462 17.856C78.5462 17.64 78.5582 17.412 78.5822 17.172C78.1502 17.556 77.6702 18.12 77.1422 18.864C76.6382 19.584 76.1462 20.4 75.6662 21.312C75.3062 21.984 74.9102 22.32 74.4782 22.32C74.3342 22.32 74.2262 22.272 74.1542 22.176C74.0822 21.912 74.0462 21.576 74.0462 21.168C74.0462 20.856 74.0822 20.376 74.1542 19.728C74.2262 19.056 74.3462 18.252 74.5142 17.316C74.5862 16.884 74.6462 16.512 74.6942 16.2C74.7422 15.888 74.7662 15.672 74.7662 15.552C74.7662 15.36 74.7302 15.264 74.6582 15.264C74.4662 15.432 74.1782 15.744 73.7942 16.2C73.4342 16.632 73.0622 17.1 72.6782 17.604C72.1982 18.252 71.6822 18.96 71.1302 19.728C70.6022 20.472 70.0622 21.288 69.5102 22.176C69.3662 22.392 69.2462 22.5 69.1502 22.5Z" fill="black"/>
</svg>
